<svg width="50" height="50" viewBox="0 0 50 50" fill="none" xmlns="http://www.w3.org/2000/svg">
<path d="M41.9062 39.4478C41.9062 41.2372 41.4166 42.6974 40.4784 43.9059C39.5479 45.1046 38.5456 45.5886 37.4206 45.5886H13.6555C12.5305 45.5886 11.5282 45.1046 10.5978 43.9059C9.65951 42.6974 9.16992 41.2372 9.16992 39.4478C9.16992 37.8682 9.24646 36.3862 9.39762 35.0004C9.54538 33.6458 9.81981 32.2762 10.2233 30.8908C10.6198 29.5298 11.1114 28.4087 11.6815 27.5053C12.215 26.66 12.922 25.9649 13.8238 25.4159C14.5264 24.9883 15.3344 24.7267 16.2743 24.6537C18.8794 27.0783 21.9882 28.3092 25.5381 28.3092C29.0879 28.3092 32.1967 27.0783 34.8019 24.6537C35.7417 24.7267 36.5497 24.9883 37.2523 25.4159C38.1541 25.9649 38.8611 26.66 39.3946 27.5053C39.9647 28.4087 40.4563 29.5298 40.8528 30.8908C41.2564 32.2762 41.5308 33.6458 41.6785 35.0004C41.8296 36.3862 41.9062 37.8682 41.9062 39.4478ZM34.7823 13.971C34.7823 16.6308 33.8867 18.8581 32.0679 20.7354C30.2496 22.6121 28.0996 23.5298 25.5381 23.5298C22.9765 23.5298 20.8265 22.6121 19.0082 20.7354C17.1894 18.8581 16.2938 16.6308 16.2938 13.971C16.2938 11.3111 17.1894 9.08377 19.0082 7.20649C20.8265 5.32979 22.9765 4.41211 25.5381 4.41211C28.0996 4.41211 30.2496 5.32979 32.0679 7.20649C33.8867 9.08377 34.7823 11.3111 34.7823 13.971Z" stroke="white" stroke-width="2"/>
</svg>
